<svg xmlns="http://www.w3.org/2000/svg" viewBox="0 0 880 300" width="880" height="300" role="img" aria-label="ACTIVITY FIELD // ÚLTIMAS CONTRIBUIÇÕES">
<defs><linearGradient id="bg" x1="0" y1="0" x2="1" y2="1"><stop offset="0" stop-color="#0e0c16"/><stop offset="1" stop-color="#0b0910"/></linearGradient><linearGradient id="scan" x1="0" y1="0" x2="1" y2="0"><stop offset="0" stop-color="#d4a24e" stop-opacity="0"/><stop offset="0.5" stop-color="#e8c07a" stop-opacity="0.9"/><stop offset="1" stop-color="#d4a24e" stop-opacity="0"/></linearGradient></defs>
<rect width="100%" height="100%" rx="14" fill="url(#bg)"/>
<rect x="5" y="5" width="870" height="290" rx="11" fill="none" stroke="#d4a24e" stroke-opacity="0.35"/>
<text x="28" y="35" fill="#e8c07a" font-family="DejaVu Sans Mono,monospace" font-size="14" font-weight="700" letter-spacing="2">◆ ACTIVITY FIELD // ÚLTIMAS CONTRIBUIÇÕES</text>
<text x="28" y="54" fill="#77694f" font-family="DejaVu Sans Mono,monospace" font-size="10" letter-spacing="1.2">contagem oficial de contribuições · últimos 30 dias</text>
<line x1="24" y1="66" x2="856" y2="66" stroke="#d4a24e" stroke-opacity="0.25"/>
<rect x="24" y="67" width="180" height="2" fill="url(#scan)" opacity="0.85"/>
<line x1="52" y1="246" x2="822" y2="246" stroke="#77694f" stroke-opacity="0.65"/>
<line x1="52" y1="96" x2="52" y2="246" stroke="#77694f" stroke-opacity="0.65"/>
<circle cx="52.0" cy="246.0" r="3" fill="#3ddc84"/>
<circle cx="78.6" cy="246.0" r="3" fill="#3ddc84"/>
<circle cx="105.1" cy="246.0" r="3" fill="#3ddc84"/>
<circle cx="131.7" cy="246.0" r="3" fill="#3ddc84"/>
<circle cx="158.2" cy="246.0" r="3" fill="#3ddc84"/>
<circle cx="184.8" cy="246.0" r="3" fill="#3ddc84"/>
<circle cx="211.3" cy="246.0" r="3" fill="#3ddc84"/>
<circle cx="237.9" cy="246.0" r="3" fill="#3ddc84"/>
<circle cx="264.4" cy="246.0" r="3" fill="#3ddc84"/>
<circle cx="291.0" cy="246.0" r="3" fill="#3ddc84"/>
<circle cx="317.5" cy="246.0" r="3" fill="#3ddc84"/>
<circle cx="344.1" cy="246.0" r="3" fill="#3ddc84"/>
<circle cx="370.6" cy="96.0" r="3" fill="#3ddc84"/>
<circle cx="397.2" cy="138.9" r="3" fill="#3ddc84"/>
<circle cx="423.7" cy="246.0" r="3" fill="#3ddc84"/>
<circle cx="450.3" cy="160.3" r="3" fill="#3ddc84"/>
<circle cx="476.8" cy="246.0" r="3" fill="#3ddc84"/>
<circle cx="503.4" cy="246.0" r="3" fill="#3ddc84"/>
<circle cx="529.9" cy="246.0" r="3" fill="#3ddc84"/>
<circle cx="556.5" cy="181.7" r="3" fill="#3ddc84"/>
<circle cx="583.0" cy="160.3" r="3" fill="#3ddc84"/>
<circle cx="609.6" cy="246.0" r="3" fill="#3ddc84"/>
<circle cx="636.1" cy="138.9" r="3" fill="#3ddc84"/>
<circle cx="662.7" cy="203.1" r="3" fill="#3ddc84"/>
<circle cx="689.2" cy="246.0" r="3" fill="#3ddc84"/>
<circle cx="715.8" cy="246.0" r="3" fill="#3ddc84"/>
<circle cx="742.3" cy="224.6" r="3" fill="#3ddc84"/>
<circle cx="768.9" cy="224.6" r="3" fill="#3ddc84"/>
<circle cx="795.4" cy="246.0" r="3" fill="#3ddc84"/>
<circle cx="822.0" cy="96.0" r="3" fill="#3ddc84"/>
<polyline points="52.0,246.0 78.6,246.0 105.1,246.0 131.7,246.0 158.2,246.0 184.8,246.0 211.3,246.0 237.9,246.0 264.4,246.0 291.0,246.0 317.5,246.0 344.1,246.0 370.6,96.0 397.2,138.9 423.7,246.0 450.3,160.3 476.8,246.0 503.4,246.0 529.9,246.0 556.5,181.7 583.0,160.3 609.6,246.0 636.1,138.9 662.7,203.1 689.2,246.0 715.8,246.0 742.3,224.6 768.9,224.6 795.4,246.0 822.0,96.0" fill="none" stroke="#e8c07a" stroke-width="2.5" stroke-linejoin="round"/>
<text x="52" y="84" fill="#a89a80" font-family="DejaVu Sans Mono,monospace" font-size="10">0</text>
<text x="52" y="71" fill="#d4a24e" font-family="DejaVu Sans Mono,monospace" font-size="10">máximo: 7</text>
<text x="52" y="268" fill="#77694f" font-family="DejaVu Sans Mono,monospace" font-size="9">2026-07-22</text>
<text x="744" y="268" fill="#77694f" font-family="DejaVu Sans Mono,monospace" font-size="9">2026-08-20</text>
<text x="52" y="280" fill="#77694f" font-family="DejaVu Sans Mono,monospace" font-size="9">total no período de 365 dias: 40 · atualizado automaticamente · 2026-08-20 18:49 UTC</text>
</svg>
